<svg version="1.0" xmlns="http://www.w3.org/2000/svg" viewBox="0 0 1361.1 625.8"><path fill="#FB2E39" d="M1129.8 0L.6 158.7 0 499.9l231.3 125.9 1129.2-158.7.6-341.3z"/><g fill="#FFF"><path d="M1315.9 180.9l-45.2 6.4-.1 48.7 45.2-6.3zM1270.6 236l-45.2 6.4v48.7l45.1-6.3z"/><path d="M1225.4 291.1l-90.4 12.7.2-97.5-45.1 6.4-.5 243.7 45.2-6.3.1-97.5 90.4-12.7zM819 250.8l-.4 243.7 225.8-31.7.1-48.8-180.6 25.4v-48.7l135.5-19.1.1-48.7-135.5 19 .1-48.7 180.7-25.4.1-48.8zM548 288.8l-.4 243.8 225.8-31.7.1-48.8-180.7 25.4.1-48.7 135.5-19.1.1-48.7L593 380l.1-48.8 180.7-25.3.1-48.8zM277.2 326.9l-.6 242.5 225.8-31.7.3-146.3-135.5 19.1-.1 48.7 90.4-12.7-.1 48.8-135.5 19 .2-145h.1l180.6-25.4-.3-.1.3.1.1-48.7zM1270.3 431l45.1-6.3.1-48.8-45.1 6.4z"/><path d="M1225.2 388.6l45.2-6.3v-48.8l-45.1 6.4z"/></g></svg>